<?xml version="1.0" standalone="no"?><!DOCTYPE svg PUBLIC "-//W3C//DTD SVG 1.1//EN" "http://www.w3.org/Graphics/SVG/1.1/DTD/svg11.dtd"><svg t="1538269807853" class="icon" style="" viewBox="0 0 1707 1024" version="1.1" xmlns="http://www.w3.org/2000/svg" p-id="820" xmlns:xlink="http://www.w3.org/1999/xlink" width="213.375" height="128"><defs><style type="text/css"></style></defs><path d="M507.75 433.75c0 214.375 173.75 388.125 388.125 388.125s388.125-173.75 388.125-388.125C1284.125 219.375 1110.25 45.625 896 45.625c-214.375 0-388.25 173.75-388.25 388.125z m0 0" fill="#61C6F1" p-id="821"></path><path d="M845.5 1008.75c-278.5 0-504.375-225.75-504.375-504.375 0-278.5 225.75-504.375 504.375-504.375 278.5 0 504.375 225.75 504.375 504.375 0 278.5-225.875 504.375-504.375 504.375z m0-947.625c-244.75 0-443.25 198.5-443.25 443.25s198.5 443.25 443.25 443.25S1288.75 749.125 1288.75 504.375c0-117.5-46.75-230.25-129.875-313.375S963 61.125 845.5 61.125z m0 0" fill="#333333" p-id="822"></path><path d="M1112 305.75c-8.875 0-17.375-3.875-23.25-10.75-61-70.875-149.875-111.625-243.25-111.625-16.875 0-30.625-13.75-30.625-30.625s13.625-30.625 30.625-30.625c111.5-0.25 217.625 48.375 290.375 133 7.875 9.125 9.5 22 4.375 33-5.125 11-16.25 17.875-28.25 17.625z m222.5 718.25c-8.125 0-15.875-3.25-21.5-9L1160.125 862.125c-10.375-12.125-9.75-30.25 1.625-41.5 11.25-11.25 29.375-12 41.5-1.625L1356.125 971.875c8.75 8.75 11.25 21.875 6.625 33.25-4.75 11.375-15.875 18.875-28.25 18.875z m0 0" fill="#333333" p-id="823"></path></svg>