<?xml version="1.0" standalone="no"?><!DOCTYPE svg PUBLIC "-//W3C//DTD SVG 1.1//EN" "http://www.w3.org/Graphics/SVG/1.1/DTD/svg11.dtd"><svg t="1538269926851" class="icon" style="" viewBox="0 0 1821 1024" version="1.1" xmlns="http://www.w3.org/2000/svg" p-id="1751" xmlns:xlink="http://www.w3.org/1999/xlink" width="227.625" height="128"><defs><style type="text/css"></style></defs><path d="M432.533333 654.533333c-44.8 64.533333-68.4 140.933333-68.533333 221.066667 0 17.733333 14.533333 32.266667 32.266667 32.266667 17.733333 0 32.266667-14.533333 32.266666-32.266667 0-171.466667 130.933333-311.066667 291.733334-311.066667 17.733333 0 32.266667-14.533333 32.266666-32.266666v-0.133334c0-17.733333-14.533333-32.266667-32.266666-32.266666-89.466667 0-162.133333-78-162.133334-173.866667 0-95.733333 72.8-173.733333 162.133334-173.733333 17.733333 0 32.266667-14.533333 32.266666-32.266667 0-17.733333-14.533333-32.266667-32.266666-32.266667-124.933333 0-226.666667 106.8-226.666667 238.133334 0 42 10.666667 83.466667 30.8 119.733333 17.466667 31.466667 41.466667 58.266667 70.133333 78.4-64.8 26.133333-120.666667 70.933333-162 130.533333z m332.8-54.666666c-37.333333 26.4-70.4 58.533333-97.866666 95.2-57.2 76.133333-87.333333 166.666667-87.333334 262 0 17.733333 14.533333 32.266667 32.266667 32.266666 17.733333 0 32.266667-14.4 32.266667-32.266666 0-99.333333 38.666667-192.933333 108.933333-263.466667 68.533333-68.8 158.533333-107.466667 254.4-109.333333l2.533333 0.533333c3.333333 0.666667 6.533333 0.933333 9.866667 0.666667 98.4 0.133333 191.333333 38.933333 261.466667 109.333333C1352 765.333333 1390.666667 858.933333 1390.666667 958.266667c0 17.733333 14.533333 32.266667 32.266666 32.266666 17.733333 0 32.266667-14.533333 32.266667-32.266666 0-95.333333-30.133333-185.866667-87.2-262-27.466667-36.533333-60.4-68.533333-97.733333-95.066667-34.133333-24.266667-71.6-43.466667-111.2-56.933333 37.2-22.266667 68.533333-53.066667 91.733333-90.133334 27.333333-43.733333 41.733333-94.133333 41.733333-145.733333 0-151.866667-123.466667-275.2-275.2-275.2-151.733333 0-275.066667 123.466667-275.066666 275.066667 0 96.133333 50.133333 185.333333 132.4 235.2-38.933333 13.6-75.733333 32.533333-109.333334 56.4zM1017.333333 97.6c116.133333 0 210.8 94.533333 210.8 210.8 0 116.133333-94.666667 210.8-210.8 210.8s-210.8-94.666667-210.8-210.8S901.066667 97.6 1017.333333 97.6z m0 0" fill="#333333" p-id="1752"></path><path d="M1018.533333 632.8l-108.133333 147.733333 108.133333 101.333334 105.466667-101.333334-105.466667-147.733333z m0 0" fill="#56C8FD" p-id="1753"></path></svg>