<?xml version="1.0" standalone="no"?><!DOCTYPE svg PUBLIC "-//W3C//DTD SVG 1.1//EN" "http://www.w3.org/Graphics/SVG/1.1/DTD/svg11.dtd"><svg t="1538269850090" class="icon" style="" viewBox="0 0 1821 1024" version="1.1" xmlns="http://www.w3.org/2000/svg" p-id="953" xmlns:xlink="http://www.w3.org/1999/xlink" width="227.625" height="128"><defs><style type="text/css"></style></defs><path d="M1065.866667 927.066667l253.333333-106.133334c1.066667-0.533333 2.266667-0.933333 3.466667-1.333333 29.733333-10.533333 49.6-38.666667 49.6-70.266667V497.6c0-265.866667-217.466667-476.933333-482.933334-465.066667-245.2 10.933333-441.333333 213.866667-441.333333 461.733334 0 1.333333 0.133333 2.8 0.4 4.133333-0.266667 2.8-0.4 5.333333-0.4 7.866667v200c0 11.866667-0.266667 23.2 0.266667 33.466666 1.2 28.933333 49.6 28.133333 50-0.8l-1.6-251.866666C499.066667 314.133333 621.333333 162.666667 769.733333 110 814 94.266667 861.2 85.333333 910.133333 85.333333h6.4c224 3.2 403.866667 186 407.333334 409.866667l3.466666 220.133333c0.533333 32.8-20.533333 62-51.733333 72.133334l-224 95.466666c-11.733333 3.733333-18.533333 16.133333-15.333333 28.133334 3.466667 12.8 16.933333 20.133333 29.6 16z" fill="#61C6F1" p-id="954"></path><path d="M587.866667 764c35.333333 0 64.266667-28.933333 64.266666-64.266667V544.4c0-35.333333-28.933333-64.266667-64.266666-64.266667-35.333333 0-64.266667 28.933333-64.266667 64.266667v155.333333c0.133333 35.333333 28.933333 64.266667 64.266667 64.266667zM1232.4 764c35.333333 0 64.266667-28.933333 64.266667-64.266667V544.4c0-35.333333-28.933333-64.266667-64.266667-64.266667-35.333333 0-64.266667 28.933333-64.266667 64.266667v155.333333c0 35.333333 28.933333 64.266667 64.266667 64.266667z" fill="#999999" p-id="955"></path><path d="M962.666667 945.2m-33.066667 0a33.066667 33.066667 0 1 0 66.133333 0 33.066667 33.066667 0 1 0-66.133333 0Z" fill="#999999" p-id="956"></path></svg>