<?xml version="1.0" standalone="no"?><!DOCTYPE svg PUBLIC "-//W3C//DTD SVG 1.1//EN" "http://www.w3.org/Graphics/SVG/1.1/DTD/svg11.dtd"><svg t="1538269935625" class="icon" style="" viewBox="0 0 1707 1024" version="1.1" xmlns="http://www.w3.org/2000/svg" p-id="1883" xmlns:xlink="http://www.w3.org/1999/xlink" width="213.375" height="128"><defs><style type="text/css"></style></defs><path d="M1136.125 1024H450c-60.125-0.125-108.875-50.125-108.875-111.75V513.125c0-63.5 51-119.375 108.875-119.375h109.5c138.375 0 242.625-108.875 242.625-253.125V111.25c0-59.25 52.375-111.25 112-111.25h2.875c45.75 0 88 31.125 102.5 75.625l7.125 20.75c21.875 66.25 24.75 137.25 8.375 205l-3.75 16.25c-1.25 10.75-6.375 30.625-15.375 49.875h240.875c33.75 0 65.125 16.25 85.75 44.5 21 28.625 28 66 18.5 100L1241.125 940.625c-12.625 48.875-55.625 83-105 83.375zM450 446.375c-30.125 0-57.75 31.75-57.75 66.875v399.125c0 32.625 26 59.25 57.75 59.25h686.125c26.625-0.75 49.625-19.125 56-45l119.75-429c5.25-18.625 1.5-38.5-10.125-53.875-10.25-14.625-27-23.375-44.875-23.5H994.625c-21.625 0-39-17.5-39-39 0-7.375 2.125-14.625 6-20.875 7.875-12.625 17.875-37.25 18.75-47.375l0.625-5.375 4.25-18.375c14.125-58 11.75-118.75-6.625-175.375L971.25 93.125c-7.75-23.5-29.375-39.625-54.125-40.375h-2.875c-31.375 0-60.875 28.625-60.875 58.75V140.625c0 174.25-126.25 305.625-293.75 305.625l-109.625 0.125z m0 0" fill="#61C6F1" p-id="1884"></path><path d="M572.375 930.75c-8.375 0.125-16.625-2.625-23.375-7.625-5.875-4.375-9.5-11.25-9.625-18.625v-392.5c0-14.5 14.75-26.375 33-26.375 18.25 0 33.125 11.75 33.125 26.375V904.375c-0.125 7.375-3.75 14.25-9.625 18.625-6.875 5.125-15.125 7.875-23.5 7.75z m0 0" fill="#999999" p-id="1885"></path></svg>