<?xml version="1.0" standalone="no"?><!DOCTYPE svg PUBLIC "-//W3C//DTD SVG 1.1//EN" "http://www.w3.org/Graphics/SVG/1.1/DTD/svg11.dtd"><svg t="1538269918793" class="icon" style="" viewBox="0 0 1821 1024" version="1.1" xmlns="http://www.w3.org/2000/svg" p-id="1617" xmlns:xlink="http://www.w3.org/1999/xlink" width="227.625" height="128"><defs><style type="text/css"></style></defs><path d="M1170.933333 890.4H648c-31.466667 0-57.2-25.733333-57.2-57.2V496.8c0-31.466667 25.733333-57.2 57.2-57.2h522.933333c31.466667 0 57.2 25.733333 57.2 57.2v336.266667c0 31.6-25.733333 57.333333-57.2 57.333333z" fill="#61C6F1" p-id="1618"></path><path d="M1214.533333 341.6H1161.333333C1161.333333 211.066667 1039.6 84 909.066667 84c-130.666667 0-254.4 127.066667-254.4 257.6h-51.2c0-81.866667 31.6-157.866667 89.6-215.866667s134-89.6 215.866666-89.6c81.866667 0 157.866667 31.6 215.866667 89.6 58.133333 57.2 89.733333 134 89.733333 215.866667z m0 0" fill="#333333" p-id="1619"></path><path d="M1247.733333 989.333333H570.266667c-56.266667 0-102.4-46.133333-102.4-102.4V443.2c0-56.266667 46.133333-102.4 102.4-102.4h678.4c56.266667 0 102.4 46.133333 102.4 102.4v444.533333c-0.933333 56.266667-46.933333 101.6-103.333334 101.6zM567.6 393.466667c-29.733333 0-54 24.266667-54 54v435.866666c0 29.733333 24.266667 54 54 54h683.866667c29.733333 0 54-24.266667 54-54V447.466667c0-29.733333-24.266667-54-54-54H567.6z m2.666667 15.6" fill="#333333" p-id="1620"></path><path d="M1016.533333 553.2l-68.266666 87.866667H977.333333c15.333333 0 27.333333 9.333333 27.333334 21.333333 0 6-3.466667 11.066667-7.733334 15.333333-5.066667 3.466667-12 6-19.6 6h-47.733333v17.866667H977.333333c15.333333 0 27.333333 9.333333 27.333334 21.333333 0 6-3.466667 11.066667-7.733334 15.333334-5.066667 3.466667-12 6-19.6 6h-47.733333v40.133333c0 15.333333-10.266667 27.333333-23.866667 27.333333-6.8 0-12-3.466667-16.266666-7.733333-4.266667-5.066667-6.8-12-6.8-19.6v-40.133333h-44.4c-15.333333 0-27.333333-9.333333-27.333334-21.333334 0-6 3.466667-11.066667 7.733334-15.333333 5.066667-3.466667 12-6 19.6-6H882.666667v-17.866667h-44.4c-15.333333 0-27.333333-9.333333-27.333334-21.333333 0-6 3.466667-11.066667 7.733334-15.333333 5.066667-4.266667 12-6 19.6-6h31.6l-68.266667-87.866667c-8.533333-11.066667-6.8-25.6 3.466667-32.4 3.466667-2.533333 7.733333-3.466667 12-3.466667 7.733333 0 16.266667 4.266667 22.133333 11.066667l70 90.4 70-89.6c6-7.733333 14.533333-11.066667 22.133333-11.066667 4.266667 0 8.533333 0.8 12 3.466667 10 6.933333 11.733333 20.533333 3.2 31.6z m0 0" fill="#333333" p-id="1621"></path></svg>