<?xml version="1.0" standalone="no"?><!DOCTYPE svg PUBLIC "-//W3C//DTD SVG 1.1//EN" "http://www.w3.org/Graphics/SVG/1.1/DTD/svg11.dtd"><svg t="1538269544350" class="icon" style="" viewBox="0 0 1024 1024" version="1.1" xmlns="http://www.w3.org/2000/svg" p-id="1024" xmlns:xlink="http://www.w3.org/1999/xlink" width="128" height="128"><defs><style type="text/css"></style></defs><path d="M831.2 227.6l-169.9-69.2c-0.4 0.1-89.9 27-149.3 27-59.5 0-149.3-27.1-149.3-27.1l-169.9 69.3L17 505.2l169.3 107.6v253.4h651.3V612.7L1007 505.2 831.2 227.6z" fill="#FFFFFF" p-id="1025"></path><path d="M839.3 867.7H184.7V613.6l-170-108 0.9-1.4 176.1-278 0.5-0.2 170.4-69.5 0.5 0.2c0.9 0.3 90.3 27 148.8 27 58.3 0 145.1-25.9 148.8-27l0.5-0.2 0.5 0.2 170.4 69.5 0.3 0.4 176.7 278.9-1.4 0.9-168.4 107.2v254.1zM188 864.5h648V611.8l168.7-107.2-174.6-275.7-168.9-68.8c-8.3 2.5-92.2 27-149.2 27-56.6 0-141.5-24.7-149.2-27l-168.9 68.8L19.2 504.7 188 611.8v252.7z" fill="#333333" p-id="1026"></path><path d="M192.8 227.6C252.9 366 512 449.9 512 449.9L362.7 158.4l-169.9 69.2zM661.3 158.4L512 449.9S771.1 366 831.2 227.6l-169.9-69.2z" fill="#485E85" p-id="1027"></path><path d="M508.8 452.6l151.8-296.4 172.8 70.4-0.7 1.5C818.9 260 793.4 291.6 757 322c-29.1 24.2-65.1 47.8-107.2 70.1-71.6 37.9-136.7 59.2-137.3 59.4l-3.7 1.1z m153.3-292.2L515.3 447.1c14.9-5.1 71.6-25.3 133.1-57.9 65.2-34.5 149.3-90.4 180.7-160.7l-167-68.1z" fill="#333333" p-id="1028"></path><path d="M776.6 530.4l-93.8 24.1-93.9-24.1v-61h187.7z" fill="#485E85" p-id="1029"></path><path d="M186.3 866.1V478.9" fill="#8E2F37" p-id="1030"></path><path d="M186.3 867.7c-0.9 0-1.6-0.7-1.6-1.6V478.9c0-0.9 0.7-1.6 1.6-1.6s1.6 0.7 1.6 1.6v387.2c0.1 0.9-0.7 1.6-1.6 1.6z" fill="#333333" p-id="1031"></path><path d="M837.7 866.1V478.9" fill="#8E2F37" p-id="1032"></path><path d="M837.7 867.7c-0.9 0-1.6-0.7-1.6-1.6V478.9c0-0.9 0.7-1.6 1.6-1.6s1.6 0.7 1.6 1.6v387.2c0 0.9-0.7 1.6-1.6 1.6z" fill="#333333" p-id="1033"></path><path d="M418.2 266.7h187.6L512 449.9z" fill="#FFFFFF" p-id="1034"></path><path d="M188.9 629.3l-1-0.7v2.2z" fill="#FFFFFF" p-id="1035"></path><path d="M184.7 541.6L50.2 456.2 37.6 476l147.1 93.9zM184.7 581.4L32.4 484.2 19.2 505l165.5 105.1z" fill="#485E85" p-id="1036"></path><path d="M184.7 579.2v-9.3L37.6 476l-5.2 8.2" fill="#FFFFFF" p-id="1037"></path><path d="M187.9 571.9v-32.1L49.2 451.7l-34.5 53.9L187.9 616v-44.1zM19.2 505l13.2-20.8 5.2-8.2 12.6-19.8 134.5 85.4v68.5L19.2 505z" fill="#333333" p-id="1038"></path><path d="M839.3 541.6l134.5-85.4 12.5 19.8-147 93.9zM839.3 581.4l152.3-97.2 13.2 20.8-165.5 105.1z" fill="#485E85" p-id="1039"></path><path d="M839.3 579.2v-9.3l147-93.9 5.3 8.2" fill="#FFFFFF" p-id="1040"></path><path d="M836 574.1V616l173.2-110.3-34.3-54.1L836 539.8V574.1z m3.3 36v-68.5l134.5-85.4 12.6 19.8 5.2 8.2 13.2 20.8-165.5 105.1z" fill="#333333" p-id="1041"></path><path d="M486.7 396.8l2 3.9M273.2 273.7c33.3 32.6 100.4 83.7 215.8 134.9l-7.1-13.8c-108.4-49.1-169.1-96.1-201.1-127.2-30.6-29.8-41.3-50.9-43.7-56.2l-9 3.7c2.6 5.9 13.6 27.7 45.1 58.6z" fill="#FFFFFF" p-id="1042"></path><path d="M363.5 156.3l-172.8 70.4 0.7 1.5c13.8 31.8 39.3 63.3 75.7 93.7 29.1 24.2 65.1 47.8 107.2 70.1 71.6 37.9 136.7 59.2 137.3 59.4l3.7 1.2-151.8-296.3z m12.2 232.9c-65.3-34.6-149.3-90.4-180.7-160.7l33.1-13.5 9-3.7 124.8-50.9 120 234.3 5.1 9.9 21.8 42.5c-14.9-5.1-71.6-25.3-133.1-57.9z" fill="#333333" p-id="1043"></path><path d="M750.8 273.7c-33.3 32.6-100.4 83.7-215.8 134.9l7.1-13.8c108.4-49.1 169.1-96.1 201.1-127.2 30.6-29.8 41.3-50.9 43.7-56.2l9 3.7c-2.6 5.9-13.5 27.7-45.1 58.6z" fill="#FFFFFF" p-id="1044"></path><path d="M775 503.2v-10.1l-92.2 23.7-92.2-23.7v10.1l92.2 23.6z" fill="#FFFFFF" p-id="1045"></path><path d="M587.3 467.7v63.9l95.5 24.5 95.5-24.5v-63.9h-191z m95.5 85.1l-92.2-23.7V471H775v58.1l-92.2 23.7z" fill="#333333" p-id="1046"></path><path d="M495.8 443.8s-41.9-13.8-76.3 20.8-30.8 78.2-30.8 78.2 69.2-1.5 91.7-18.1c20.6-15.2 22.7-27.6 23-39.8 0.2-12.2 0-24.4-7.6-41.1z" fill="#8E2F37" p-id="1047"></path><path d="M387.2 544.4l-0.1-1.5c0-0.4-3.2-44.7 31.3-79.4 34.7-34.9 77.5-21.4 77.9-21.2l0.7 0.2 0.3 0.7c7.6 16.9 8 29.4 7.7 41.8-0.3 12.2-2.3 25.3-23.7 41-22.7 16.7-89.8 18.4-92.6 18.4h-1.5z m88.3-101.7c-15 0-36.2 4.1-54.9 23-29.8 30-30.6 67.4-30.4 75.3 10.4-0.4 69.2-3 89.2-17.7 20.2-14.8 22.1-26.7 22.3-38.5 0.3-12.3-0.1-23.8-7.1-39.7-2.2-0.6-9.3-2.4-19.1-2.4z" fill="#333333" p-id="1048"></path><path d="M528.2 443.8s41.9-13.8 76.3 20.8 30.8 78.2 30.8 78.2-65.7 4.2-91.7-18.1c-19.4-16.7-22.7-27.6-23-39.8-0.2-12.2 0.1-24.4 7.6-41.1z" fill="#8E2F37" p-id="1049"></path><path d="M622.2 544.7c-20.8 0-60.4-2.3-79.6-18.8-19.2-16.5-23.3-27.9-23.6-41-0.3-12.4 0.1-25 7.7-41.8l0.3-0.7 0.7-0.2c0.4-0.1 43.3-13.7 77.9 21.2 34.5 34.8 31.3 79 31.3 79.4l-0.1 1.4-1.4 0.1c-0.6 0.1-5.7 0.4-13.2 0.4z m-92.8-99.6c-7 15.9-7.4 27.4-7.1 39.7 0.3 12.5 4 22.8 22.4 38.6 23.1 19.8 79.3 18.2 89.1 17.8 0.2-7.7-0.5-45.3-30.4-75.5-31-31.1-68.5-22.1-74-20.6z" fill="#333333" p-id="1050"></path><path d="M525.9 484.9h-28.3c-1 0-1.8-0.8-1.8-1.8v-39.6c0-1 0.8-1.8 1.8-1.8h28.3c1 0 1.8 0.8 1.8 1.8v39.6c0 1-0.8 1.8-1.8 1.8z" fill="#8E2F37" p-id="1051"></path><path d="M525.9 486.5h-28.3c-1.9 0-3.5-1.6-3.5-3.5v-39.6c0-1.9 1.6-3.5 3.5-3.5h28.3c1.9 0 3.5 1.6 3.5 3.5V483c-0.1 2-1.6 3.5-3.5 3.5z m-28.3-43.3c-0.1 0-0.2 0.1-0.2 0.2V483c0 0.1 0.1 0.2 0.2 0.2h28.3c0.1 0 0.2-0.1 0.2-0.2v-39.6c0-0.1-0.1-0.2-0.2-0.2h-28.3z" fill="#333333" p-id="1052"></path><path d="M495.8 463.2s-30.1 8-45.1 25.4" fill="#8E2F37" p-id="1053"></path><path d="M450.6 490.3c-0.4 0-0.8-0.1-1.1-0.4-0.7-0.6-0.8-1.6-0.2-2.3 15.2-17.6 44.7-25.6 46-25.9 0.9-0.2 1.8 0.3 2 1.2 0.2 0.9-0.3 1.8-1.2 2-0.3 0.1-29.8 8-44.3 24.9-0.3 0.3-0.7 0.5-1.2 0.5z" fill="#333333" p-id="1054"></path><path d="M527.7 465.9s33.2 0.8 48.6 26" fill="#8E2F37" p-id="1055"></path><path d="M576.3 493.5c-0.5 0-1.1-0.3-1.4-0.8-14.8-24.1-46.9-25.2-47.2-25.2-0.9 0-1.6-0.8-1.6-1.7 0-0.9 0.8-1.6 1.7-1.6 1.4 0 34.2 1.1 49.9 26.7 0.5 0.8 0.2 1.8-0.5 2.2-0.3 0.3-0.6 0.4-0.9 0.4z" fill="#333333" p-id="1056"></path></svg>