<?xml version="1.0" standalone="no"?><!DOCTYPE svg PUBLIC "-//W3C//DTD SVG 1.1//EN" "http://www.w3.org/Graphics/SVG/1.1/DTD/svg11.dtd"><svg t="1538269857737" class="icon" style="" viewBox="0 0 1821 1024" version="1.1" xmlns="http://www.w3.org/2000/svg" p-id="1086" xmlns:xlink="http://www.w3.org/1999/xlink" width="227.625" height="128"><defs><style type="text/css"></style></defs><path d="M719.6 829.866667h383.733333l115.333334-633.333334H602.666667z" fill="#61C6F1" p-id="1087"></path><path d="M1003.733333 249.333333c-1.6 4.933333-3.333333 10.933333-5.466666 17.466667l-3.866667 12.533333c-3.333333 10.933333-7.066667 22.933333-9.866667 31.733334l-2.133333 6.533333-7.066667-1.066667c-19.066667-2.8-33.866667-3.866667-46.933333-3.866666-127.2 0-182.933333 94.533333-200.933333 134.933333l3.866666 3.333333c27.866667-22.933333 84.133333-60.666667 148-62.266666h6c37.2 0 60.133333 9.333333 68.266667 13.066666l6.533333 2.8-22.933333 83.066667 5.466667-2.666667c15.866667-7.6 56.8-26.8 161.6-74.266666l7.6-3.333334L1005.466667 244l-1.733334 5.333333zM939.866667 638.266667h-6c-35.466667 0-56.8-8.133333-66.666667-12.533334l-6.533333-2.666666 22.4-80.8-5.466667 2.666666c-16.933333 7.6-72.666667 33.333333-164.933333 75.333334l-3.333334 1.6 2.133334 2.666666c10.933333 14.8 67.733333 101.066667 91.2 136.533334l14.133333 19.6 2.133333-6.533334c1.066667-3.333333 2.133333-7.066667 3.333334-10.933333 2.133333-7.066667 4.933333-15.866667 7.6-24.533333 2.666667-8.8 5.466667-17.466667 7.6-24.533334l2.133333-7.066666 7.066667 1.066666c15.333333 2.666667 30 3.866667 45.866666 3.866667 124.533333 0 179.2-92.266667 197.2-132.133333l-4.4-3.333334c-33.466667 27.866667-86.533333 60.666667-145.466666 61.733334z" fill="#333333" p-id="1088"></path><path d="M1422.666667 31.466667H399.2c-18.533333 1.066667-32.8 11.2-33.866667 29.333333v3.866667c1.066667 19.066667 16.933333 26.133333 35.466667 26.133333h37.733333l150.133334 834.266667c7.066667 39.333333 41.466667 68.266667 81.333333 68.266666h480c39.866667 0 74.266667-28.4 81.333333-68.266666l148-834.266667h49.2c16.4 0 26.266667-11.333333 26.266667-27.2 1.733333-19.733333-13.6-31.066667-32.133333-32.133333zM1167.866667 935.733333H655.733333L499.733333 90.666667h821.866667L1167.866667 935.733333z" fill="#333333" p-id="1089"></path></svg>