<?xml version="1.0" standalone="no"?><!DOCTYPE svg PUBLIC "-//W3C//DTD SVG 1.1//EN" "http://www.w3.org/Graphics/SVG/1.1/DTD/svg11.dtd"><svg t="1538273336123" class="icon" style="" viewBox="0 0 1024 1024" version="1.1" xmlns="http://www.w3.org/2000/svg" p-id="939" xmlns:xlink="http://www.w3.org/1999/xlink" width="128" height="128"><defs><style type="text/css"></style></defs><path d="M1000.698536 961.682131L790.804727 751.788322c71.710707-79.297231 115.604163-184.244135 115.604163-299.306403C906.40889 206.46181 706.269183 6.141471 460.068442 6.141471S13.727994 206.281178 13.727994 452.301288s200.139707 446.340448 446.340448 446.340448c107.295114 0 205.739284-38.113247 282.868937-101.334274l210.977597 210.977597c12.824837 12.824837 33.778091 12.824837 46.78356 0 12.824837-12.824837 12.824837-33.778091 0-46.602928z m-922.304463-509.380843c0-210.435703 171.238666-381.674369 381.674369-381.67437S841.742812 241.865585 841.742812 452.301288s-171.238666 381.674369-381.67437 381.674369S78.394073 662.736991 78.394073 452.301288z" p-id="940"></path></svg>